<?xml version="1.0" standalone="no"?>
<!DOCTYPE svg PUBLIC "-//W3C//DTD SVG 20010904//EN"
 "http://www.w3.org/TR/2001/REC-SVG-20010904/DTD/svg10.dtd">
<svg version="1.0" xmlns="http://www.w3.org/2000/svg"
 width="2048.000000pt" height="2048.000000pt" viewBox="0 0 2048.000000 2048.000000"
 preserveAspectRatio="xMidYMid meet">
<metadata>
Created by potrace 1.14, written by Peter Selinger 2001-2017
</metadata>
<g transform="translate(0.000000,2048.000000) scale(0.100000,-0.100000)"
fill="#000000" stroke="none">
<path d="M15965 18833 c-213 -21 -485 -102 -655 -195 -231 -127 -361 -220
-508 -365 -122 -121 -170 -155 -141 -102 18 34 7 82 -22 98 -24 13 -30 12 -75
-11 -229 -118 -198 -107 -349 -115 -135 -6 -138 -6 -155 17 -15 19 -31 24
-116 32 -54 5 -138 7 -186 4 l-86 -6 10 34 c13 42 4 82 -22 96 -23 13 -41 5
-115 -51 -65 -49 -164 -95 -234 -110 -39 -8 -124 -10 -276 -5 -121 3 -314 9
-430 12 -251 7 -500 -11 -765 -56 -431 -73 -682 -149 -893 -270 -47 -27 -107
-55 -133 -63 -78 -24 -155 -56 -182 -77 -29 -24 -37 -20 -45 20 -6 30 -43 50
-67 35 -6 -3 -30 -45 -53 -93 -32 -66 -60 -104 -119 -164 -43 -43 -82 -78 -87
-78 -5 0 -5 15 2 35 9 30 8 39 -6 52 -13 13 -23 15 -44 7 -29 -10 -136 -135
-199 -233 -38 -60 -54 -74 -54 -48 0 24 -58 101 -89 120 -37 22 -63 12 -80
-30 -6 -15 -22 -107 -36 -203 -14 -96 -37 -217 -52 -269 -25 -88 -30 -98 -97
-170 -114 -123 -282 -280 -361 -337 -23 -16 -47 -35 -55 -42 -84 -76 -438
-295 -660 -410 -58 -29 -172 -89 -255 -132 -82 -43 -177 -89 -210 -103 -202
-86 -261 -114 -369 -179 -215 -127 -339 -247 -376 -363 -7 -22 -24 -64 -37
-94 -54 -122 -66 -274 -38 -486 39 -287 38 -272 13 -322 -28 -55 -114 -136
-174 -162 -42 -19 -49 -28 -44 -61 3 -20 15 -27 61 -34 22 -3 39 -8 39 -11 0
-3 -26 -36 -58 -74 -60 -72 -122 -178 -122 -210 0 -41 78 -69 108 -39 19 19
20 7 7 -52 -7 -30 -20 -88 -29 -128 -9 -40 -21 -81 -26 -90 -6 -9 -19 -39 -30
-65 -20 -48 -20 -48 -1 -75 20 -27 83 -206 96 -271 4 -18 18 -57 31 -86 23
-50 49 -120 129 -345 86 -241 253 -472 389 -537 38 -18 43 -31 25 -65 -8 -15
-8 -23 3 -33 10 -10 30 -10 103 2 114 18 195 11 251 -22 24 -14 47 -31 51 -39
17 -28 53 -35 174 -35 173 1 527 -54 664 -103 85 -30 107 -49 144 -117 27 -51
38 -62 69 -71 51 -14 65 -13 170 10 74 16 96 18 111 8 16 -10 27 -8 63 9 47
24 163 53 208 53 16 0 73 -11 127 -25 54 -14 119 -25 145 -25 43 0 53 -5 103
-50 94 -85 173 -178 249 -294 84 -127 186 -316 186 -343 0 -10 -41 -61 -91
-113 -231 -240 -464 -577 -623 -898 -94 -191 -213 -519 -266 -732 -17 -69 -37
-147 -45 -175 -35 -125 -66 -395 -96 -825 -32 -467 -76 -684 -181 -895 -57
-115 -71 -133 -90 -117 -7 6 -51 18 -98 28 -94 19 -214 16 -439 -12 -135 -16
-153 -15 -462 32 -41 7 -91 -15 -120 -50 -25 -30 -52 -158 -44 -209 10 -65 41
-158 66 -202 65 -115 226 -234 429 -318 156 -65 205 -78 393 -108 115 -18 313
0 447 41 108 33 188 42 430 50 298 9 405 28 563 104 162 77 355 238 406 339
20 38 27 45 37 35 19 -20 44 -116 44 -172 0 -98 26 -97 91 4 63 99 73 101 150
32 35 -31 78 -73 96 -93 18 -20 51 -44 74 -54 l42 -19 21 26 c20 25 23 26 53
13 17 -7 71 -40 120 -72 48 -32 102 -65 118 -72 121 -54 320 -98 483 -107 113
-6 120 -6 140 14 23 23 21 43 -6 75 -31 35 24 11 76 -34 18 -16 39 -29 48 -29
8 0 43 24 79 54 85 73 96 78 184 81 131 5 278 76 364 176 109 127 147 175 147
186 0 24 42 36 105 29 48 -5 65 -3 74 8 9 10 10 56 5 169 -9 197 -5 208 76
231 33 9 65 16 71 16 6 0 41 13 78 29 52 24 75 29 109 24 24 -3 41 -9 40 -12
-2 -4 -124 -188 -272 -410 -396 -595 -504 -775 -557 -929 -26 -74 -49 -203
-49 -269 0 -49 -6 -66 -57 -151 -31 -54 -90 -144 -131 -202 -74 -106 -178
-275 -354 -580 -104 -179 -461 -886 -552 -1092 -126 -286 -301 -745 -420
-1100 -166 -496 -292 -983 -436 -1693 -46 -225 -150 -830 -150 -869 0 -14 52
-16 510 -16 281 0 510 4 510 8 0 17 82 684 101 822 125 908 262 1623 410 2140
99 344 366 1145 494 1480 37 96 104 278 150 403 45 125 85 230 88 234 3 3 17
-3 30 -14 l24 -18 -144 -415 c-219 -628 -290 -867 -448 -1498 -256 -1023 -410
-1871 -562 -3094 l-6 -48 1069 0 1069 0 23 198 c154 1333 423 2639 777 3782
343 1107 636 1827 1054 2589 68 123 140 251 160 285 66 107 238 409 262 458
22 45 24 47 83 57 34 5 103 13 155 17 l94 7 -79 -99 c-453 -562 -1014 -1619
-1371 -2583 -217 -586 -442 -1345 -577 -1946 -49 -217 -128 -622 -146 -750 -6
-44 -27 -138 -45 -210 -73 -281 -111 -521 -150 -935 -9 -96 -22 -231 -30 -300
-8 -69 -21 -213 -30 -320 -8 -107 -17 -207 -20 -222 l-4 -28 3214 0 3215 0 0
4963 -1 4962 -267 -530 c-657 -1299 -939 -1777 -1206 -2039 -141 -139 -371
-298 -500 -345 -170 -62 -348 -22 -751 171 -493 236 -674 294 -1000 319 -112
9 -185 10 -290 1 -77 -6 -141 -9 -143 -8 -2 2 196 190 440 417 244 227 531
497 638 599 107 102 352 334 545 515 1050 990 1911 1851 2323 2324 222 254
213 239 210 346 l-3 88 -50 -64 c-91 -118 -259 -313 -365 -424 -58 -60 -122
-130 -141 -155 -88 -110 -1448 -1458 -2019 -2000 -1232 -1171 -1810 -1730
-1810 -1752 0 -10 -16 -45 -37 -76 -194 -303 -509 -852 -648 -1132 l-78 -156
-86 -23 c-163 -44 -261 -59 -418 -68 -249 -13 -568 -10 -648 6 -145 28 -316
105 -397 179 l-39 35 21 22 c11 12 20 25 20 30 0 4 20 43 45 86 48 84 56 126
27 152 -25 23 -54 21 -99 -5 l-38 -23 38 50 c49 65 83 131 98 188 9 36 8 55
-4 96 -20 67 -15 117 24 233 26 80 30 100 19 113 -18 21 -35 19 -66 -10 -15
-14 -29 -25 -32 -25 -4 0 15 27 28 40 17 17 59 81 75 115 10 22 21 68 23 103
4 56 6 62 27 62 12 0 28 6 34 14 10 12 5 23 -26 58 -21 24 -42 46 -48 50 -12
9 2 14 92 33 114 23 178 71 219 163 42 93 29 115 -53 89 -26 -9 -66 -18 -88
-22 -50 -8 -64 -20 -58 -46 8 -30 41 -38 93 -23 24 7 47 11 50 8 14 -15 -116
-83 -215 -113 -77 -22 -115 -45 -115 -66 0 -8 10 -21 23 -30 21 -16 19 -16
-40 -10 -94 10 -128 -9 -97 -54 12 -17 18 -19 34 -9 16 10 29 7 79 -16 61 -29
71 -46 71 -110 0 -25 -78 -141 -152 -229 -51 -59 -51 -63 7 -69 l30 -3 8 -125
c15 -237 20 -212 -64 -351 -41 -68 -74 -128 -74 -134 0 -5 25 -10 55 -10 l55
0 -3 -44 c-4 -58 -51 -139 -73 -126 -4 3 -11 24 -17 48 -11 42 -25 55 -75 71
-24 8 -59 -7 -102 -45 -39 -35 -165 -219 -210 -309 -28 -55 -196 -462 -282
-682 -25 -65 -49 -115 -54 -113 -4 3 -13 22 -20 43 -6 20 -33 96 -60 168 -59
161 -75 264 -59 389 22 175 76 293 280 605 73 113 189 293 258 400 68 107 157
247 198 310 40 63 77 120 81 125 5 6 15 24 22 42 14 35 29 35 68 0 23 -21 53
-17 53 7 0 25 -12 46 -25 46 -7 0 -15 7 -18 15 -20 50 -192 82 -277 50 -25 -9
-61 -20 -81 -24 -50 -11 -142 -58 -169 -86 -15 -16 -23 -39 -25 -67 -1 -24 -6
-96 -10 -160 l-8 -118 -39 0 c-51 0 -106 -29 -143 -76 -36 -46 -113 -122 -175
-172 -25 -20 -53 -44 -63 -53 -21 -19 -149 -83 -196 -98 -19 -6 -52 -11 -75
-11 -48 0 -146 -58 -184 -109 -28 -39 -36 -39 -52 -1 -17 42 -60 70 -117 77
-38 4 -52 2 -62 -11 -17 -21 -8 -86 15 -103 13 -10 9 -13 -28 -18 -49 -7 -137
5 -276 40 -188 46 -244 69 -345 143 -20 15 -55 40 -76 55 -49 35 -107 45 -147
24 -29 -15 -29 -15 -98 50 -65 62 -150 113 -189 113 -10 0 -36 -18 -59 -40
-42 -40 -58 -43 -58 -11 0 25 -48 113 -71 131 -19 15 -19 17 -2 60 15 38 18
79 18 270 0 140 -5 244 -12 275 -7 28 -15 81 -18 119 l-7 69 29 -22 c93 -73
107 -81 125 -75 11 3 45 -8 81 -25 35 -17 67 -31 72 -31 5 0 16 -6 24 -13 17
-15 61 -31 211 -79 83 -26 113 -30 230 -33 182 -4 380 24 500 70 172 65 226
93 305 154 102 79 138 122 157 187 9 33 28 91 43 129 86 225 119 398 112 584
-5 130 -23 298 -38 351 -9 34 -46 205 -75 344 -7 37 -17 73 -22 80 -5 6 -12
29 -16 51 -8 49 -53 198 -72 242 -8 17 -14 37 -14 43 0 46 -239 545 -340 710
-37 60 -133 194 -177 249 -15 19 -52 66 -82 105 -50 66 -93 119 -124 156 -8 8
-59 71 -115 140 -181 224 -331 366 -510 483 -79 52 -201 111 -251 122 -17 4
-44 13 -61 21 -102 51 -421 72 -570 38 -98 -23 -235 -29 -305 -13 -108 23
-268 11 -347 -27 -36 -17 -38 -17 -58 1 -16 15 -30 17 -84 12 -36 -3 -87 -13
-114 -22 -58 -19 -98 -17 -95 5 4 28 -52 95 -102 122 -55 29 -148 53 -269 68
-44 6 -84 14 -90 18 -6 5 -37 14 -69 21 -31 7 -63 19 -71 27 -8 8 -19 14 -24
14 -6 0 -15 13 -20 30 -23 64 -80 120 -129 126 -49 5 -218 118 -298 200 -101
102 -198 168 -287 194 -33 9 -38 15 -38 40 0 15 -11 41 -24 57 -31 37 -42 61
-50 105 -7 38 -54 88 -83 88 -8 0 -13 3 -11 8 40 91 42 103 25 155 -9 29 -19
70 -22 92 -4 22 -11 45 -16 51 -12 15 -23 470 -12 518 7 32 15 41 38 49 63 20
243 101 308 139 142 83 297 222 512 462 44 49 109 120 144 158 86 92 125 145
143 193 9 22 33 76 54 120 83 174 50 288 -101 344 -48 18 -77 21 -223 21 -92
0 -217 -5 -279 -10 -144 -13 -216 -16 -228 -9 -5 3 -57 6 -115 7 -202 3 -331
26 -382 70 -19 16 -24 38 -10 44 4 2 29 35 55 74 65 98 152 176 293 260 107
64 264 144 282 144 8 0 232 113 277 139 16 10 75 42 130 71 150 79 312 169
383 212 34 21 64 38 67 38 18 0 386 247 500 336 121 93 307 300 357 396 56
106 100 282 110 441 2 20 8 38 13 38 18 2 55 -83 55 -127 0 -30 5 -44 17 -48
22 -9 59 32 146 162 38 56 72 102 76 102 3 0 11 -8 17 -18 20 -31 67 -26 121
14 92 69 134 121 203 246 l36 67 18 -29 c25 -43 52 -39 159 23 51 29 114 63
141 75 26 13 65 33 85 46 112 69 605 229 851 277 52 10 115 22 140 28 25 5 81
12 125 16 44 4 83 9 87 11 18 11 184 19 388 19 229 0 366 -6 590 -26 224 -20
307 3 449 121 40 34 76 59 79 55 4 -3 -1 -28 -11 -54 -31 -87 -24 -96 54 -76
47 13 190 14 282 3 18 -2 24 -18 7 -18 -12 0 -13 -37 -1 -44 4 -3 93 -2 197 2
209 9 216 11 383 107 60 36 63 36 56 14 -4 -13 -12 -27 -17 -30 -5 -3 -9 -8
-7 -10 1 -2 -1 -15 -6 -28 -11 -35 7 -45 78 -42 106 4 288 -32 667 -132 104
-28 205 -58 380 -116 259 -86 307 -100 393 -116 100 -19 242 -19 332 0 38 8
72 15 75 15 2 0 -12 -11 -33 -25 -75 -52 -42 -74 120 -80 65 -2 127 -4 138 -5
19 0 19 -2 -4 -19 -37 -28 -21 -56 44 -77 30 -9 55 -20 55 -24 0 -9 61 -21
106 -22 36 0 153 18 176 27 31 12 8 -36 -51 -109 -72 -90 -91 -118 -91 -136 0
-8 18 5 41 28 22 23 61 59 87 80 26 20 64 53 85 72 54 48 150 120 162 120 6 0
26 13 45 30 19 16 39 29 44 30 4 0 29 17 55 38 50 40 62 48 131 87 25 14 70
41 101 59 31 18 99 52 150 75 127 57 127 57 184 72 28 6 55 15 60 18 17 10
174 41 280 56 55 8 136 19 180 26 174 25 546 -7 723 -61 91 -28 239 -100 320
-155 132 -89 291 -258 358 -382 90 -163 124 -329 131 -638 4 -183 1 -251 -16
-402 -12 -100 -28 -204 -35 -230 -8 -26 -17 -66 -21 -88 -10 -60 -83 -352
-105 -420 -11 -33 -31 -94 -44 -135 -13 -41 -28 -86 -34 -100 -6 -14 -20 -50
-32 -80 -37 -93 -82 -187 -175 -364 -43 -83 -133 -222 -172 -267 -70 -81 -194
-194 -263 -241 -90 -61 -261 -158 -291 -166 -27 -6 -34 -13 -34 -33 0 -20 6
-25 33 -27 35 -4 134 26 192 58 19 10 46 24 59 30 45 20 149 100 223 170 72
69 74 69 129 70 43 0 72 8 130 36 41 20 86 45 101 56 16 11 28 17 28 13 0 -3
-21 -50 -47 -103 -40 -80 -61 -110 -126 -173 -54 -54 -75 -81 -71 -93 7 -19
-1 -19 81 -1 65 15 149 50 277 116 32 16 61 27 64 25 11 -11 -49 -85 -122
-152 -101 -91 -104 -133 -9 -134 32 0 37 -17 18 -61 -15 -33 -16 -43 -5 -69
21 -51 50 -64 127 -57 46 5 88 17 143 44 43 21 73 31 67 23 -26 -32 -91 -90
-102 -90 -6 0 -23 -12 -37 -27 -14 -16 -55 -54 -91 -86 -76 -66 -87 -100 -39
-118 75 -29 115 -56 177 -120 64 -65 104 -85 119 -60 3 4 19 11 36 15 17 3 41
16 53 29 25 27 91 77 100 77 9 0 -51 -89 -90 -133 -32 -36 -41 -70 -25 -93 11
-17 48 -34 72 -34 17 0 20 -4 15 -17 -24 -55 -19 -70 42 -132 32 -34 64 -61
71 -61 15 0 16 54 1 83 -6 12 -23 34 -37 50 l-26 27 27 28 c47 48 31 92 -32
92 -56 0 -64 11 -35 45 38 43 77 130 78 173 2 56 -31 56 -97 -1 -29 -24 -70
-54 -93 -67 l-41 -23 -70 71 c-42 43 -89 80 -117 93 -47 20 -47 21 -29 41 29
33 93 92 150 137 61 48 112 118 120 165 8 49 -19 50 -113 5 -88 -43 -159 -60
-219 -52 -22 3 -41 6 -43 8 -1 1 4 15 13 31 8 16 15 41 15 56 0 29 -34 68 -58
68 -8 0 20 34 61 75 65 64 77 81 82 119 16 103 -8 107 -169 28 -66 -33 -137
-64 -156 -67 -39 -9 -42 -16 31 75 57 71 131 227 133 280 1 41 -1 45 -24 48
-18 2 -41 -12 -82 -47 -31 -27 -72 -58 -90 -68 -44 -27 -136 -58 -144 -50 -4
3 6 23 22 44 115 150 263 412 338 598 20 50 41 99 46 110 18 35 110 316 136
415 133 489 167 815 129 1229 -15 163 -43 276 -99 396 -99 214 -332 426 -591
537 -151 65 -200 80 -405 119 -98 19 -390 22 -510 6 -377 -52 -503 -74 -600
-103 -105 -32 -235 -77 -262 -90 -40 -21 -46 -18 -53 24 -19 117 -80 270 -146
367 -62 91 -132 156 -257 238 -90 60 -122 77 -272 145 -131 59 -242 91 -465
132 -143 27 -179 30 -335 28 -96 -1 -193 -3 -215 -5z m398 -49 c218 -27 460
-101 640 -198 135 -71 177 -96 177 -106 0 -4 26 -24 58 -45 56 -37 155 -131
199 -189 60 -79 123 -245 140 -366 4 -34 2 -36 -49 -64 -109 -60 -290 -191
-324 -234 -11 -16 -119 -24 -196 -15 -46 5 -46 6 -36 32 16 39 12 177 -7 261
-27 118 -86 220 -185 320 -97 98 -114 111 -231 173 -121 65 -203 88 -337 94
-133 7 -223 -6 -333 -48 -81 -31 -122 -61 -117 -87 4 -20 28 -28 28 -9 0 37
146 87 265 90 162 5 419 -70 544 -157 154 -107 259 -253 295 -406 19 -80 20
-130 2 -195 -10 -40 -16 -49 -32 -47 -10 2 -35 6 -55 9 -30 4 -35 8 -32 26 6
31 -29 49 -104 52 -35 2 -77 7 -94 10 l-31 7 32 33 c26 27 31 39 26 59 -5 22
-12 26 -41 26 -18 0 -46 -5 -61 -10 -15 -6 -67 -20 -117 -31 -209 -46 -401
-13 -764 132 -71 28 -173 67 -228 86 -55 19 -112 41 -126 48 -31 17 -145 45
-153 38 -3 -3 -22 1 -43 10 -43 17 -161 31 -273 31 -51 1 -75 5 -75 13 0 7 23
29 52 51 29 21 87 71 130 109 249 226 429 337 695 429 254 88 457 106 761 68z
m-9062 -4690 c5 -33 14 -86 20 -119 20 -121 68 -245 128 -335 34 -50 42 -79
29 -103 -16 -29 -23 -276 -9 -347 5 -30 17 -91 24 -135 8 -44 22 -106 32 -138
23 -81 14 -125 -36 -171 -52 -49 -52 -79 -1 -104 20 -11 49 -22 63 -25 17 -4
31 -18 39 -38 7 -17 30 -49 52 -72 43 -47 43 -45 24 -83 -18 -34 -7 -60 32
-75 26 -10 138 -29 175 -30 10 0 15 -5 11 -11 -4 -6 -1 -9 7 -6 15 5 69 -28
69 -42 0 -4 20 -43 44 -86 33 -58 60 -91 100 -122 55 -42 180 -99 241 -109 21
-3 38 -15 48 -33 28 -48 24 -50 -83 -50 -54 0 -121 -5 -147 -10 -49 -11 -49
-11 -93 30 -58 53 -100 64 -237 57 l-113 -5 0 30 c0 35 -46 83 -120 125 -116
67 -197 178 -270 373 -28 74 -60 160 -71 190 -27 73 -55 138 -100 235 -21 45
-44 110 -53 145 -19 81 -52 178 -67 197 -9 10 -3 30 26 87 31 61 40 95 56 205
23 159 19 176 -42 168 -21 -3 -39 -3 -39 -1 0 15 76 149 110 194 44 59 49 84
23 99 -48 27 -48 29 -22 50 13 11 29 20 35 21 13 0 68 58 84 88 15 31 19 26
31 -44z m3517 -3426 c32 -18 70 -41 83 -50 l24 -16 -91 -94 c-151 -155 -229
-263 -374 -518 -165 -291 -237 -464 -296 -710 -19 -80 -47 -174 -64 -210 -40
-90 -95 -410 -155 -915 -9 -71 -20 -157 -26 -190 -21 -121 -101 -446 -131
-528 -38 -104 -168 -275 -270 -353 -49 -38 -61 -43 -78 -34 -12 6 -65 27 -118
46 -53 20 -98 37 -99 38 -2 2 15 38 38 82 53 100 94 214 120 329 27 119 70
494 84 730 3 55 10 123 15 150 5 28 11 88 15 135 3 47 12 112 20 145 9 33 22
96 30 140 16 93 53 243 64 265 4 8 13 40 20 70 7 30 16 64 21 75 4 11 29 79
55 150 102 286 235 563 336 700 47 65 187 205 297 298 135 114 389 297 413
297 4 0 34 -15 67 -32z m307 -295 l36 -38 -5 -90 c-2 -57 -12 -112 -26 -150
-12 -33 -32 -98 -46 -143 -22 -74 -43 -117 -153 -302 -20 -35 -99 -194 -159
-321 -29 -60 -92 -233 -112 -304 -30 -105 -53 -216 -76 -353 -22 -137 -26
-187 -25 -387 0 -126 6 -291 13 -365 14 -147 13 -398 -3 -525 -20 -161 -90
-369 -179 -528 -74 -134 -65 -126 -166 -138 -49 -5 -97 -12 -106 -15 -9 -3
-21 1 -27 8 -6 7 -22 27 -36 44 -19 25 -44 38 -112 59 -95 29 -221 82 -250
103 -17 13 -17 14 2 28 55 39 126 123 162 192 49 92 168 399 193 498 18 69 30
144 90 554 29 200 96 518 144 690 13 47 32 121 41 165 38 176 170 537 266 728
58 117 154 264 235 364 63 77 243 263 256 263 4 0 24 -17 43 -37z m-136 -1633
c30 -159 102 -331 194 -469 85 -126 152 -199 259 -280 211 -160 398 -228 599
-218 129 6 259 53 337 121 l35 31 -6 -30 c-3 -17 -16 -59 -30 -95 -18 -48 -33
-70 -56 -85 -18 -11 -55 -35 -82 -52 -107 -69 -233 -125 -367 -164 -100 -29
-328 -59 -447 -59 -108 0 -147 13 -70 23 50 7 85 25 85 44 0 7 -3 13 -7 14 -5
0 -36 2 -69 4 -116 7 -250 87 -340 204 -127 164 -184 350 -185 601 -1 220 51
585 99 694 l17 39 11 -129 c6 -71 17 -158 23 -194z m-2094 -1691 c67 -11 121
-34 282 -123 72 -39 161 -80 333 -151 160 -66 218 -94 277 -134 29 -19 50 -37
48 -41 -4 -6 -59 3 -325 55 -248 49 -444 51 -493 7 -15 -13 -17 -25 -13 -55
l6 -38 -32 6 c-18 3 -134 23 -258 44 -365 62 -436 100 -548 300 -29 51 -51 95
-50 96 2 1 32 -1 68 -5 71 -7 130 -2 385 34 174 24 200 24 320 5z m6765 -2024
c48 -43 88 -197 70 -266 -14 -53 -59 -99 -96 -99 -65 0 -130 77 -141 168 -6
55 14 137 47 191 20 31 24 33 61 28 22 -3 49 -13 59 -22z m-826 -3172 c42 -52
47 -62 42 -96 -5 -45 -46 -108 -81 -127 -54 -29 -100 50 -99 172 1 70 23 108
63 108 22 0 38 -12 75 -57z m-164 -1500 c40 -61 47 -103 25 -159 -28 -74 -57
-72 -112 10 -24 34 -33 60 -33 88 0 64 42 124 77 111 7 -3 26 -25 43 -50z"/>
<path d="M18548 17835 c-12 -12 1 -25 24 -25 22 0 120 -47 171 -82 78 -54 154
-141 252 -288 107 -162 188 -307 179 -321 -11 -18 -115 -9 -191 17 -82 27
-113 46 -182 113 -24 23 -47 41 -52 41 -19 0 -22 -32 -6 -64 33 -70 197 -221
197 -183 0 8 -13 26 -30 42 -16 16 -30 32 -30 36 0 4 30 -4 68 -17 52 -18 88
-24 163 -24 83 0 98 -3 104 -17 138 -341 153 -792 39 -1203 -82 -293 -280
-672 -452 -862 -78 -86 -454 -358 -496 -358 -8 0 -18 -5 -21 -11 -4 -5 -20 10
-35 35 -34 53 -92 86 -158 91 -26 1 -48 8 -50 14 -2 6 -12 21 -22 33 -18 22
-18 22 -72 5 -30 -9 -67 -17 -82 -17 -27 0 -136 48 -136 59 0 3 21 17 47 31
73 39 107 103 93 175 -5 29 -8 30 -53 28 -27 -1 -61 -10 -79 -21 -80 -49 -237
-69 -310 -39 l-33 14 38 18 c63 30 143 109 154 153 12 45 2 78 -25 86 -20 7
-209 -48 -227 -65 -11 -11 -45 -12 -45 -1 0 4 35 51 78 106 114 145 142 186
142 207 0 25 -16 24 -86 -7 -130 -58 -293 -80 -389 -53 -39 11 -39 12 -15 21
113 43 223 136 285 243 23 38 25 48 14 61 -13 16 -71 16 -111 -1 -52 -21 10
64 135 187 43 43 77 83 75 90 -3 7 -24 19 -49 27 l-44 15 33 8 c18 5 54 22 80
38 62 38 255 244 250 268 -4 18 -11 19 -103 9 l-60 -7 45 41 c51 45 195 129
254 149 21 7 62 15 90 19 45 6 51 9 50 29 0 12 1 22 2 22 2 0 29 -7 61 -15
102 -27 233 -16 327 26 22 10 77 42 121 72 62 41 80 58 80 76 0 29 -16 38 -78
46 -62 8 -53 20 56 74 120 59 224 72 362 46 52 -10 6 12 -63 29 -140 37 -389
-22 -494 -116 -21 -18 -40 -45 -44 -60 -5 -23 -2 -28 19 -33 14 -4 49 -2 79 3
67 12 114 14 104 5 -4 -5 -11 -8 -14 -8 -4 -1 -32 -14 -62 -30 -217 -115 -353
-124 -532 -34 -48 24 -58 26 -68 14 -14 -17 -7 -29 37 -68 18 -16 33 -33 33
-37 0 -5 -24 -16 -54 -24 -124 -36 -273 -128 -340 -210 -50 -62 -39 -76 38
-52 72 23 88 17 40 -16 -22 -14 -72 -58 -112 -97 -88 -86 -131 -109 -230 -124
-74 -12 -103 -31 -65 -43 10 -3 32 -12 48 -19 17 -7 49 -16 73 -20 23 -4 42
-11 42 -15 0 -5 -15 -19 -32 -32 -111 -77 -216 -254 -164 -274 10 -4 34 1 55
11 21 9 46 15 56 13 14 -2 5 -15 -36 -55 -144 -138 -226 -193 -287 -193 -27 0
-32 -4 -32 -25 0 -19 6 -26 28 -31 28 -6 46 -13 97 -42 58 -32 308 -18 335 18
3 4 19 10 35 14 l30 8 -21 -24 c-12 -13 -34 -36 -49 -53 -98 -107 -171 -236
-153 -268 12 -23 34 -21 61 3 49 46 264 127 283 107 19 -19 -92 -111 -201
-167 -41 -21 -46 -57 -8 -66 15 -3 46 -12 68 -19 126 -40 190 -30 404 62 11 5
12 -2 7 -33 -8 -44 -41 -78 -123 -125 -57 -33 -67 -54 -30 -64 12 -4 49 -25
81 -48 70 -48 147 -62 191 -33 35 23 48 20 65 -16 13 -27 23 -34 69 -44 47
-10 62 -20 111 -73 53 -57 90 -76 104 -52 3 5 21 9 38 9 18 0 79 21 135 45
300 132 489 328 669 691 30 59 54 113 54 119 0 6 9 29 19 51 23 49 67 178 76
226 4 19 11 40 15 45 4 6 13 35 19 65 7 30 17 69 21 85 10 31 21 112 40 271
22 191 3 571 -34 694 -8 25 -19 71 -26 102 -6 32 -15 60 -20 63 -4 2 -11 26
-15 52 -4 27 -15 62 -26 79 -10 17 -30 60 -43 96 -43 114 -139 298 -186 356
-59 74 -167 145 -274 183 -90 31 -176 46 -188 34z m-1088 -2329 c0 -3 -4 -8
-10 -11 -5 -3 -10 -1 -10 4 0 6 5 11 10 11 6 0 10 -2 10 -4z"/>
<path d="M12115 17269 c-99 -4 -205 -12 -235 -18 -30 -6 -86 -15 -125 -20
-189 -26 -543 -130 -722 -212 -38 -17 -90 -41 -118 -54 -45 -20 -174 -89 -265
-142 -160 -92 -415 -305 -480 -400 -8 -11 -54 -72 -102 -135 -103 -137 -131
-187 -132 -241 l-1 -41 75 -26 c41 -15 104 -40 140 -55 81 -34 172 -35 284 -5
89 25 132 42 281 116 61 29 155 75 210 100 55 26 153 73 218 105 64 33 121 59
126 59 12 0 212 112 436 243 94 55 188 110 210 122 22 12 60 34 85 48 74 43
319 164 403 197 42 18 74 36 71 42 -3 5 2 9 12 7 11 -1 40 7 65 19 57 25 191
63 239 68 19 2 58 8 85 14 67 15 268 29 330 23 89 -8 278 -54 370 -89 93 -35
125 -41 125 -25 0 29 -495 227 -635 255 -90 18 -290 36 -454 41 -102 3 -215 7
-251 9 -36 1 -146 -1 -245 -5z"/>
<path d="M18931 16753 c-17 -62 -67 -113 -119 -120 -37 -5 -51 -14 -97 -66
-30 -33 -57 -58 -59 -56 -2 2 -10 20 -18 39 -31 73 -114 145 -136 117 -5 -6
-12 -68 -15 -137 -7 -127 -32 -235 -55 -235 -17 0 -16 -19 1 -23 8 -2 24 10
36 27 40 56 53 110 55 228 0 62 4 113 8 113 12 0 56 -63 76 -111 11 -26 26
-50 33 -55 8 -5 33 16 75 61 59 66 63 69 88 57 18 -8 33 -9 44 -3 29 16 68 64
81 101 7 19 18 45 24 58 8 16 8 25 0 33 -9 9 -14 1 -22 -28z"/>
<path d="M15418 16763 c-9 -10 -20 -31 -24 -48 -19 -77 -115 -241 -228 -385
-64 -82 -244 -300 -265 -321 -9 -8 -63 -67 -121 -130 -246 -267 -564 -583
-740 -734 -19 -17 -55 -48 -80 -71 -118 -105 -359 -295 -542 -428 -60 -43
-123 -96 -143 -118 -42 -50 -118 -108 -180 -138 -32 -15 -44 -27 -41 -37 3 -8
6 -19 6 -25 0 -45 280 79 485 215 200 132 452 324 620 471 141 123 388 368
475 471 23 28 49 57 56 65 15 16 134 169 181 233 15 20 42 55 58 76 17 22 37
49 45 60 137 188 230 314 277 376 127 167 238 414 207 462 -15 24 -28 26 -46
6z m-548 -817 c0 -2 -8 -10 -17 -17 -16 -13 -17 -12 -4 4 13 16 21 21 21 13z
m-49 -59 c-6 -8 -9 -16 -6 -19 3 -2 -1 -5 -9 -5 -11 0 -12 4 -3 19 7 10 16 18
21 18 4 0 3 -6 -3 -13z m-494 -525 c-10 -10 -16 -21 -15 -23 2 -2 1 -3 -1 -2
-2 2 -11 -3 -20 -9 -9 -7 -3 2 13 20 17 18 32 32 34 32 3 0 -2 -8 -11 -18z
m-57 -60 c0 -4 -10 -13 -22 -21 -23 -14 -23 -14 -4 8 20 22 26 25 26 13z m-58
-58 c-12 -8 -22 -22 -22 -30 0 -8 -5 -12 -11 -9 -12 8 27 55 45 55 6 0 0 -7
-12 -16z m-75 -79 c0 -8 -4 -12 -9 -9 -5 3 -6 10 -3 15 9 13 12 11 12 -6z"/>
<path d="M18970 16742 c0 -24 34 -52 64 -52 23 0 41 -9 61 -30 32 -34 81 -54
91 -38 6 10 -67 92 -98 109 -12 7 -27 5 -48 -6 -28 -14 -31 -14 -50 5 -11 11
-20 17 -20 12z"/>
<path d="M11620 16230 c-376 -42 -598 -98 -820 -208 -165 -82 -326 -190 -308
-207 3 -3 61 23 129 57 140 71 188 92 195 86 2 -3 -15 -19 -39 -36 -54 -39
-167 -148 -167 -161 0 -6 -25 -38 -56 -73 -31 -34 -62 -75 -70 -90 -21 -41 1
-45 34 -7 15 18 45 52 67 75 22 23 58 61 80 84 22 24 60 56 85 73 25 17 78 57
117 89 40 32 77 58 81 58 5 0 17 8 26 19 55 61 316 144 571 181 356 52 651 46
960 -20 158 -34 512 -146 631 -201 51 -23 54 -23 54 -5 0 26 -161 97 -385 171
-93 31 -257 70 -375 89 -52 9 -106 19 -120 22 -40 10 -607 13 -690 4z"/>
<path d="M15621 16006 c-12 -18 -21 -36 -21 -40 0 -4 -4 -12 -10 -19 -5 -7
-56 -75 -113 -152 -153 -207 -261 -315 -558 -557 -147 -120 -470 -365 -624
-473 -38 -27 -105 -74 -148 -105 -44 -30 -86 -60 -95 -65 -10 -6 -89 -64 -177
-130 -88 -66 -209 -148 -270 -182 -120 -68 -135 -78 -135 -95 0 -16 79 -3 137
23 100 46 228 112 336 173 62 35 148 83 192 107 44 24 103 56 130 71 28 15 60
32 73 38 21 9 62 36 191 124 230 157 807 722 961 940 19 27 47 65 61 85 68 97
139 258 123 282 -11 18 -33 8 -53 -25z"/>
<path d="M11720 16004 c-165 -18 -189 -21 -295 -49 -49 -13 -117 -28 -150 -35
-135 -26 -406 -136 -549 -223 -129 -79 -361 -291 -415 -381 -18 -29 -8 -46 17
-29 27 19 282 143 294 143 6 0 -24 -35 -65 -77 -155 -159 -190 -204 -173 -220
4 -5 131 89 146 108 12 15 144 109 148 105 7 -7 -67 -154 -111 -222 -22 -34
-53 -69 -69 -78 -19 -12 -28 -25 -28 -43 l0 -26 128 6 c127 5 343 -13 380 -33
62 -33 150 -64 245 -85 59 -14 113 -28 119 -32 7 -3 50 -15 97 -26 67 -14 141
-20 331 -24 221 -5 259 -3 385 17 183 30 402 103 520 175 22 13 49 28 61 34
103 47 351 270 417 374 10 15 22 25 27 22 4 -3 10 -1 12 3 5 13 100 76 135 91
32 13 49 7 191 -78 61 -36 68 -37 81 -14 9 17 12 16 40 -5 17 -12 45 -25 63
-29 32 -6 32 -6 12 14 -21 23 -150 113 -161 113 -3 0 -14 6 -22 14 -33 29
-442 250 -571 309 -57 26 -296 111 -340 120 -14 3 -54 13 -90 21 -204 49 -559
66 -810 40z m665 -193 c137 -19 192 -28 290 -50 236 -52 627 -194 610 -221 -4
-6 -11 -10 -16 -10 -21 0 -261 -193 -299 -240 -11 -13 -259 -188 -315 -222
-33 -19 -94 -50 -135 -68 -41 -18 -79 -36 -85 -40 -19 -14 -230 -78 -295 -89
-36 -6 -82 -13 -102 -17 -40 -7 -49 4 -23 26 45 37 112 174 129 265 12 60 14
125 5 125 -5 0 -9 10 -9 23 0 18 2 19 10 7 8 -12 10 -11 10 8 0 12 -6 22 -12
23 -9 0 -9 2 -2 5 7 3 9 16 5 34 l-6 30 -130 3 c-184 5 -255 39 -255 124 0 74
114 128 258 121 40 -1 72 1 72 5 0 20 -45 93 -81 132 l-40 44 48 3 c68 4 262
-7 368 -21z m-1466 -327 c-48 -106 -62 -175 -54 -273 5 -69 13 -99 40 -153 35
-71 36 -74 7 -59 -60 33 -253 66 -314 54 l-30 -6 16 31 c9 17 20 34 26 37 15
9 74 138 100 218 19 60 28 72 73 106 64 46 158 111 162 111 2 0 -10 -29 -26
-66z m212 -20 c21 -26 0 -44 -86 -76 -98 -36 -128 -40 -133 -15 -13 63 177
142 219 91z m119 -3 c14 -26 3 -50 -26 -57 -42 -11 -72 34 -42 64 18 18 56 14
68 -7z m711 -287 c17 -18 20 -27 12 -32 -9 -6 -7 -16 7 -37 41 -63 17 -73 -43
-19 -47 43 -134 85 -177 86 -17 1 -29 6 -27 12 6 19 62 18 121 -2 l57 -19 -21
22 c-11 12 -18 24 -14 27 10 11 61 -12 85 -38z m-681 27 c0 -5 -23 -26 -51
-46 -53 -38 -60 -54 -15 -33 22 10 29 9 36 -2 9 -14 -20 -83 -40 -95 -5 -3
-10 -15 -10 -26 0 -12 -5 -19 -12 -16 -14 4 -16 39 -4 74 l7 21 -65 -21 c-36
-11 -69 -17 -73 -13 -10 10 74 87 142 132 49 32 85 43 85 25z m-110 -13 c0
-12 -88 -69 -117 -76 -27 -7 -11 19 33 53 47 35 84 45 84 23z m128 -132 c-2
-3 5 -11 16 -19 19 -14 49 -87 40 -97 -3 -3 -17 8 -31 25 -19 21 -33 29 -51
26 -22 -2 -24 0 -18 26 9 32 39 70 44 54 2 -6 2 -13 0 -15z m530 4 c18 -11 38
-18 44 -14 11 7 28 -13 28 -34 0 -26 -32 -23 -80 8 -73 47 -65 85 8 40z m-82
-16 c34 -16 74 -58 74 -76 0 -17 -51 1 -97 34 -43 32 -49 39 -36 51 10 10 22
9 59 -9z m-232 -55 c25 -19 31 -20 64 -10 51 17 147 11 147 -9 0 -12 -14 -15
-60 -15 -33 -1 -76 -4 -97 -9 -24 -5 -49 -3 -72 5 -31 11 -38 11 -56 -6 -24
-22 -52 -12 -58 20 -5 24 13 41 30 27 9 -7 18 -6 32 4 27 19 39 18 70 -7z"/>
<path d="M11927 15149 c7 -7 15 -10 18 -7 3 3 -2 9 -12 12 -14 6 -15 5 -6 -5z"/>
<path d="M18290 15910 c-32 -25 -114 -42 -192 -40 -105 3 -118 1 -118 -15 0
-16 96 -49 113 -38 6 4 3 10 -9 14 -12 5 2 8 40 8 75 1 127 17 168 52 38 31
36 48 -2 19z"/>
<path d="M18110 15810 c0 -6 8 -10 18 -10 34 0 32 -13 -8 -56 -44 -48 -51 -81
-20 -109 22 -20 78 -16 134 10 17 7 41 16 54 20 13 4 22 9 19 11 -2 2 -36 -3
-74 -12 -106 -26 -130 -6 -73 59 39 44 39 75 3 83 -16 3 -34 7 -40 10 -7 2
-13 -1 -13 -6z"/>
<path d="M18355 15631 c-42 -50 -119 -113 -197 -161 -27 -16 -48 -36 -48 -44
0 -45 199 -48 288 -4 l52 26 -6 -50 -7 -51 33 6 c80 16 154 -37 175 -125 13
-50 42 -59 61 -19 35 70 -76 181 -183 181 l-40 0 1 42 c1 55 -18 59 -89 23
-55 -27 -205 -48 -205 -28 0 5 22 26 50 47 57 43 119 115 143 165 10 19 16 35
14 37 -1 1 -20 -19 -42 -45z"/>
<path d="M10587 14804 c31 -43 150 -155 219 -205 159 -117 345 -183 732 -260
84 -17 115 -20 124 -11 13 13 -6 42 -29 42 -7 0 -39 8 -71 18 -31 11 -106 34
-167 52 -60 18 -114 37 -119 41 -6 5 -16 9 -23 9 -14 0 -235 93 -263 111 -8 5
-26 14 -40 19 -23 10 -98 48 -177 90 -17 9 -60 37 -95 62 -34 25 -74 49 -87
53 l-24 7 20 -28z"/>
<path d="M10955 14415 c17 -14 46 -39 65 -56 19 -16 89 -56 155 -89 191 -95
374 -123 625 -95 25 2 92 9 150 15 57 6 138 20 180 31 118 33 155 85 42 60
-97 -21 -192 -30 -333 -31 -129 0 -172 5 -414 50 -186 34 -333 72 -405 102
-14 6 -41 17 -60 25 l-35 14 30 -26z"/>
<path d="M13928 14077 c-205 -185 -328 -267 -401 -267 -24 0 -28 -3 -19 -12
34 -34 152 3 259 83 71 53 76 49 14 -12 -89 -88 -61 -111 62 -50 121 60 137
54 55 -23 -41 -37 -68 -70 -68 -83 0 -38 65 -49 174 -28 l40 8 -23 -29 c-84
-109 -83 -107 -66 -123 15 -15 20 -12 58 30 86 96 157 208 157 249 0 26 -14
25 -59 -2 -20 -13 -72 -30 -116 -39 -76 -16 -110 -17 -69 -3 26 9 74 63 74 83
0 41 -52 53 -115 27 -19 -8 -35 -13 -35 -10 0 2 17 23 39 47 80 87 135 197 99
197 -7 0 -34 -19 -60 -43z"/>
<path d="M17990 13791 c-218 -173 -307 -214 -412 -192 -64 14 -71 9 -18 -13
99 -39 213 -6 368 107 30 21 55 37 58 35 6 -7 -98 -128 -149 -175 -26 -23 -72
-61 -102 -85 -30 -23 -55 -48 -55 -55 0 -9 39 -13 138 -16 128 -3 241 -23 265
-46 9 -9 -22 -22 -104 -45 -31 -9 -67 -24 -80 -35 -22 -17 -22 -20 -7 -42 20
-30 246 -145 259 -132 9 9 -2 22 -66 82 -21 19 -120 72 -132 70 -4 0 -9 4 -11
9 -4 12 13 17 76 27 29 5 54 18 80 42 l37 35 -30 24 c-48 39 -117 54 -243 55
l-113 0 40 32 c49 39 174 173 247 264 51 63 64 102 39 110 -5 1 -44 -24 -85
-56z"/>
<path d="M13810 13389 c-182 -50 -263 -82 -284 -115 -13 -19 -13 -24 5 -43 11
-12 18 -25 15 -30 -3 -5 -36 -14 -73 -21 -38 -7 -73 -17 -79 -22 -7 -4 -22
-40 -34 -78 -32 -100 -37 -105 -80 -83 -22 11 -64 19 -115 21 -70 3 -83 1
-107 -18 -35 -27 -36 -61 -3 -115 30 -49 34 -76 8 -53 -61 53 -279 123 -284
91 -1 -5 -3 -34 -4 -66 -4 -77 -45 -243 -56 -225 -5 7 -9 20 -9 29 -1 90 -95
212 -147 192 -18 -7 -16 -23 3 -23 39 0 93 -103 101 -192 3 -38 10 -68 14 -68
5 0 9 -7 9 -15 0 -21 34 -19 52 3 50 59 62 95 66 205 2 59 7 107 11 107 3 0
55 -25 115 -55 60 -31 127 -58 148 -61 76 -13 85 37 23 129 -19 29 -35 57 -35
64 0 36 137 21 193 -21 83 -62 108 -40 128 110 l12 89 44 2 c94 3 182 53 154
87 -13 15 -4 26 21 26 33 0 135 49 193 92 71 53 69 77 -5 57z"/>
<path d="M15391 13013 c-10 -21 -43 -62 -72 -91 -53 -52 -206 -162 -227 -162
-5 0 -38 -16 -72 -35 -34 -19 -64 -35 -66 -35 -3 0 -35 -15 -72 -32 -67 -33
-102 -61 -102 -83 0 -31 23 -34 214 -29 l191 6 -60 -53 c-75 -67 -126 -121
-120 -127 3 -3 1 -10 -4 -16 -20 -26 -48 -122 -41 -141 17 -46 37 -51 103 -28
34 12 63 20 66 18 8 -8 -71 -160 -116 -224 -26 -36 -85 -103 -131 -148 -105
-101 -105 -114 2 -106 42 3 76 2 76 -3 0 -5 -27 -52 -60 -104 -71 -112 -88
-157 -70 -189 9 -17 17 -21 36 -17 13 4 24 3 24 -2 0 -4 -27 -56 -60 -115 -55
-100 -74 -157 -51 -157 25 0 44 17 80 70 68 99 89 149 87 205 -2 46 -4 50 -29
53 -15 2 -27 6 -27 8 0 3 20 35 44 73 24 37 58 92 75 124 26 49 29 60 19 87
-10 31 -11 31 -67 25 l-56 -7 35 28 c55 44 128 123 149 163 67 124 103 236 88
274 -7 19 -51 22 -93 7 -36 -14 -40 -7 -20 39 25 54 62 109 121 176 94 107 85
118 -99 125 l-131 5 84 43 c46 24 89 48 97 55 7 7 38 30 68 52 30 22 55 44 56
48 0 5 27 38 59 74 54 59 111 147 111 173 0 22 -21 8 -39 -27z"/>
<path d="M9530 12704 c0 -4 7 -15 16 -25 25 -28 29 -128 9 -225 -18 -84 -14
-112 13 -95 8 4 16 27 19 51 5 36 47 130 58 130 2 0 3 -31 4 -69 1 -77 23
-128 66 -151 20 -11 28 -10 50 4 23 15 25 22 25 93 l0 77 20 -22 c12 -12 27
-22 35 -22 8 0 15 -3 15 -8 0 -24 269 -105 395 -118 77 -8 80 -8 80 8 0 7 -27
18 -60 25 -33 8 -89 20 -125 28 -117 25 -294 104 -338 151 -32 33 -52 17 -52
-41 0 -60 -11 -106 -24 -102 -6 2 -20 45 -31 95 -11 50 -24 94 -29 99 -4 4
-23 -9 -40 -31 l-33 -38 -6 56 c-6 60 -34 127 -54 134 -7 2 -13 0 -13 -4z"/>
<path d="M10637 12476 c-17 -17 -16 -39 4 -93 13 -34 -3 -29 -88 27 -42 28
-82 50 -89 50 -8 0 -25 -18 -39 -41 l-26 -40 -37 50 c-20 28 -43 51 -50 51
-14 0 -11 -8 21 -52 12 -17 22 -51 26 -90 5 -55 9 -63 28 -66 17 -3 24 3 28
25 4 15 15 46 26 69 l19 41 39 -37 c70 -67 171 -89 184 -41 3 11 -1 37 -9 58
-7 21 -13 44 -14 51 0 19 82 14 152 -9 73 -24 124 -29 120 -11 -4 23 27 24 62
3 47 -29 142 -61 183 -61 26 0 33 4 33 19 0 14 -24 28 -99 60 -107 44 -173 53
-189 25 -8 -14 -13 -14 -58 1 -27 9 -85 19 -129 22 -68 5 -84 3 -98 -11z"/>
<path d="M17824 12058 c-17 -13 -48 -40 -70 -60 -87 -81 -140 -113 -244 -145
l-75 -23 55 3 c72 5 150 36 233 92 37 25 70 45 73 45 18 0 -97 -154 -159 -214
-23 -21 -50 -44 -61 -51 -118 -71 -127 -79 -124 -104 3 -23 13 -29 79 -51 41
-14 100 -39 130 -56 57 -34 169 -140 169 -161 0 -8 -13 -13 -32 -14 -32 -1
-32 -2 7 -9 31 -7 43 -5 52 7 15 19 -1 50 -54 108 -18 20 -33 39 -33 42 0 19
-130 99 -192 119 -32 11 -58 22 -58 26 0 4 10 13 23 19 12 7 24 15 27 18 3 3
26 22 52 41 26 19 48 39 48 44 0 4 30 40 66 79 82 88 147 195 142 233 -4 36
-17 39 -54 12z"/>
<path d="M4295 11961 c-39 -11 -118 -36 -175 -56 -58 -20 -112 -38 -120 -40
-8 -2 -76 -26 -150 -53 -74 -27 -175 -61 -225 -77 -340 -103 -668 -224 -791
-291 -94 -52 -227 -188 -331 -339 -45 -66 -99 -143 -120 -172 -21 -29 -66 -92
-100 -140 -35 -48 -67 -93 -73 -100 -5 -6 -30 -45 -55 -85 -58 -93 -145 -208
-168 -222 -35 -21 -276 125 -329 199 -155 218 -311 300 -575 304 -123 2 -362
-31 -533 -75 -8 -2 -55 -13 -105 -24 -131 -30 -186 -47 -322 -98 -100 -37
-123 -48 -123 -65 0 -15 5 -18 23 -13 12 3 80 18 152 32 72 14 155 31 185 39
48 12 205 46 355 76 50 10 61 12 145 25 82 12 302 10 370 -5 100 -22 212 -85
269 -152 117 -137 199 -260 263 -396 34 -73 52 -101 62 -97 8 3 17 11 19 18 7
18 -44 161 -92 255 l-43 85 48 -40 c27 -22 87 -67 134 -99 179 -124 260 -247
299 -455 26 -140 31 -184 32 -305 3 -181 -17 -345 -67 -550 -26 -106 -30 -155
-14 -155 5 0 15 10 21 22 17 31 75 216 96 304 10 41 21 74 24 74 4 0 9 -19 12
-42 4 -24 27 -106 52 -183 26 -77 49 -160 52 -185 6 -51 -16 -148 -46 -208
-10 -20 -31 -61 -46 -89 -27 -53 -27 -93 0 -93 16 0 124 139 155 199 14 28 24
72 28 123 l7 81 51 29 52 29 7 -63 c4 -35 13 -92 20 -128 43 -207 27 -348 -52
-459 -50 -71 -210 -230 -230 -231 -7 0 -13 -4 -13 -8 0 -11 -167 -135 -261
-193 -112 -70 -263 -143 -359 -174 -47 -15 -94 -31 -105 -35 -11 -5 -141 -49
-290 -100 -148 -50 -301 -104 -340 -119 -38 -16 -88 -34 -110 -41 -82 -25
-271 -91 -287 -100 -10 -6 -27 -10 -37 -10 -11 0 -23 -4 -26 -10 -3 -5 -25
-14 -48 -20 -23 -6 -51 -15 -62 -20 -22 -11 -307 -104 -367 -121 -38 -10 -38
-10 -38 -63 l0 -54 113 30 c61 16 117 33 122 38 6 4 24 10 40 14 17 4 68 22
115 41 479 188 567 223 735 294 115 50 382 150 565 213 187 64 403 169 525
253 164 114 266 194 351 279 72 72 99 107 130 171 38 77 39 82 38 185 0 101
-16 176 -54 255 -19 39 -59 178 -54 186 8 14 147 77 354 161 274 111 345 136
644 220 78 22 161 46 186 53 171 50 474 184 640 283 42 25 71 45 195 137 52
39 117 84 145 102 49 31 53 32 88 18 54 -21 189 -53 267 -64 70 -10 197 0 232
18 10 5 37 17 61 27 56 23 139 113 148 160 3 19 9 36 13 38 3 2 27 1 51 -4 25
-4 79 -11 120 -15 41 -3 82 -8 90 -10 8 -3 155 -16 325 -30 171 -14 337 -29
370 -34 33 -6 92 -13 130 -16 250 -21 576 -54 585 -60 3 -2 65 -6 139 -10 130
-7 136 -8 210 -46 42 -21 103 -45 136 -54 133 -35 339 6 389 77 21 29 20 82 0
114 -63 95 -346 141 -510 83 -64 -23 -111 -29 -134 -17 -8 4 -73 16 -145 28
-71 11 -155 25 -185 30 -88 16 -270 40 -335 45 -33 3 -94 7 -135 11 -41 3 -88
7 -105 9 -16 2 -88 9 -160 15 -71 6 -157 15 -190 19 -33 5 -118 10 -190 12
-71 1 -156 3 -187 5 -32 1 -112 2 -179 3 l-121 1 -91 89 c-51 50 -117 111
-147 138 -131 115 -125 106 -121 182 4 87 -15 244 -40 341 -25 94 -99 322
-109 335 -4 6 -22 44 -39 85 -47 115 -147 288 -203 353 -59 68 -157 140 -219
163 -73 25 -222 28 -304 5z m201 -72 c32 -6 82 -22 110 -35 59 -28 151 -105
198 -167 42 -55 125 -192 143 -237 8 -19 21 -48 29 -65 29 -63 61 -165 80
-255 3 -14 10 -43 16 -65 6 -22 13 -44 14 -50 15 -54 31 -162 33 -215 l2 -65
-35 55 c-20 30 -42 69 -50 85 -53 105 -171 246 -253 302 -30 20 -70 43 -91 50
-59 22 -167 26 -302 14 -135 -13 -493 -65 -550 -80 -94 -26 -369 -91 -403 -96
-24 -4 -35 -10 -31 -17 6 -10 140 -6 239 6 30 4 98 11 205 21 30 3 71 8 90 11
19 2 53 7 75 9 22 3 63 10 90 15 133 25 427 46 512 35 35 -4 69 -17 100 -38
79 -53 212 -220 298 -372 62 -110 119 -172 308 -335 48 -41 108 -102 134 -134
42 -54 46 -65 44 -109 -2 -59 -13 -82 -58 -124 -60 -56 -131 -77 -269 -80
-130 -3 -183 8 -284 56 -61 29 -239 144 -285 185 -170 150 -504 311 -672 323
-115 9 -283 -25 -283 -57 0 -6 0 -13 0 -17 0 -5 70 -8 155 -8 175 0 206 -10
123 -40 -103 -36 -348 -214 -348 -253 0 -12 6 -10 28 10 35 33 230 133 281
143 9 2 51 13 93 25 43 11 86 23 96 25 11 2 35 8 54 13 36 10 52 5 138 -45 43
-24 176 -116 204 -140 79 -68 130 -106 188 -140 64 -39 66 -41 43 -51 -13 -6
-65 -42 -117 -79 -161 -119 -246 -170 -413 -252 -143 -69 -229 -108 -285 -126
-30 -9 -68 -23 -85 -30 -60 -26 -112 -43 -205 -68 -52 -15 -176 -49 -275 -76
-203 -56 -398 -125 -497 -177 -74 -38 -127 -74 -256 -177 l-86 -67 -26 77
c-15 43 -44 112 -65 153 -67 132 -87 197 -85 275 6 219 -4 373 -32 480 -6 22
-11 45 -12 50 -2 6 -10 28 -20 50 -9 22 -24 63 -33 90 -21 65 -91 164 -145
206 -24 18 -47 36 -51 39 -5 4 43 59 105 122 191 193 264 285 438 548 121 181
144 211 206 268 37 34 86 73 110 86 66 37 420 171 754 285 96 32 227 78 290
101 195 71 424 137 481 139 19 1 62 -4 95 -10z m1159 -1654 c11 -2 58 -9 105
-14 47 -6 103 -13 125 -16 99 -12 126 -15 220 -20 55 -3 147 -10 205 -15 138
-12 204 -17 385 -30 138 -10 368 -35 419 -46 11 -3 39 -7 61 -9 22 -3 60 -8
85 -12 52 -7 46 -7 133 -17 70 -9 115 -13 157 -15 43 -2 56 -16 42 -46 l-12
-26 -88 6 c-48 4 -90 9 -94 12 -5 2 -72 8 -150 13 -79 6 -152 11 -163 14 -11
2 -58 7 -105 10 -47 4 -96 9 -110 10 -44 5 -143 16 -200 21 -30 3 -82 10 -115
16 -64 12 -79 13 -340 23 -93 4 -213 12 -265 17 -52 6 -140 12 -195 15 -152 7
-162 10 -168 43 -3 16 -9 40 -12 54 -7 24 -5 26 27 21 18 -3 42 -7 53 -9z
m2253 -165 c121 -26 192 -63 192 -102 0 -33 -94 -68 -199 -75 -88 -6 -117 -2
-239 33 -53 16 -53 16 -38 40 18 27 21 90 5 100 -47 29 147 32 279 4z"/>
<path d="M11195 11900 c-62 -75 -124 -120 -168 -120 -30 0 -36 -14 -11 -24 27
-10 88 12 138 49 25 20 46 33 46 30 0 -26 -83 -148 -115 -169 -14 -9 -25 -23
-25 -31 0 -20 3 -19 53 16 53 37 137 59 232 59 76 0 115 -7 115 -21 0 -5 -35
-27 -79 -48 -78 -40 -96 -57 -85 -86 10 -24 65 -53 129 -66 52 -10 68 -10 120
6 51 14 69 27 127 87 38 38 68 64 68 56 -1 -27 -40 -94 -79 -136 -47 -49 -50
-64 -19 -86 29 -20 150 -22 167 -3 14 18 -5 37 -38 37 -65 0 -89 23 -55 51 30
25 64 107 64 154 0 63 -19 67 -74 17 -78 -72 -116 -86 -238 -86 -60 -1 -108 1
-108 4 0 3 24 16 53 29 91 41 111 75 61 107 -29 19 -175 23 -230 6 -44 -14
-64 0 -45 30 38 59 81 156 81 181 0 44 -23 32 -85 -43z"/>
<path d="M17621 11320 c-90 -10 -78 -51 44 -152 41 -33 75 -65 75 -70 0 -5 5
-6 10 -3 20 12 9 28 -72 111 -45 46 -79 86 -76 90 7 6 56 13 106 16 17 1 30 4
27 7 -8 7 -58 8 -114 1z"/>
<path d="M12013 11136 c-70 -58 -173 -78 -214 -40 -16 15 -19 15 -19 2 0 -27
48 -50 102 -50 36 1 64 9 104 32 30 16 54 28 54 25 0 -17 -56 -108 -86 -139
-18 -19 -34 -39 -34 -43 0 -4 39 -8 88 -8 69 0 97 -5 135 -22 29 -13 47 -28
45 -35 -3 -7 -27 -21 -54 -31 -27 -10 -53 -22 -57 -26 -14 -14 5 -41 36 -50
18 -5 50 -17 72 -25 62 -24 156 -18 204 13 12 8 13 12 1 26 -10 12 -24 14 -68
9 -32 -4 -79 -1 -115 7 -56 12 -59 13 -34 22 15 5 27 13 27 18 0 5 7 9 15 9
11 0 15 9 13 31 -2 22 -11 35 -35 50 -42 26 -125 49 -180 49 l-43 0 23 27 c12
15 33 38 47 52 13 15 22 26 20 26 -2 0 2 17 9 37 20 61 -5 77 -56 34z"/>
<path d="M17520 11119 c0 -5 21 -49 46 -97 26 -48 53 -109 60 -137 17 -62 18
-142 2 -147 -21 -7 -1 -37 21 -31 34 9 45 32 44 97 -1 78 -43 184 -105 261
-43 53 -68 74 -68 54z"/>
<path d="M17395 10790 c-45 -50 -68 -262 -40 -373 9 -38 15 -70 13 -72 -2 -2
-21 11 -42 30 -62 53 -81 61 -109 42 -34 -22 -109 -162 -131 -247 -12 -43 -14
-45 -45 -42 -40 4 -64 -16 -97 -80 -33 -65 -54 -151 -54 -220 0 -101 20 -75
50 67 46 216 115 305 108 140 -3 -57 -2 -60 21 -63 30 -5 41 12 41 64 0 55 60
239 108 331 l17 33 66 -66 c54 -53 73 -67 106 -71 37 -5 41 -3 45 20 3 14 -6
66 -18 114 -47 173 -54 342 -17 379 10 10 12 19 6 25 -6 6 -16 2 -28 -11z"/>
<path d="M12385 10655 c-65 -57 -72 -62 -86 -68 -8 -3 -1 -6 15 -6 16 -1 44 8
62 20 40 24 41 21 14 -31 -11 -21 -17 -46 -14 -55 15 -39 119 -60 157 -31 24
19 4 34 -53 38 -40 3 -45 6 -48 30 -2 14 6 45 18 68 17 33 19 45 9 56 -17 21
-30 17 -74 -21z"/>
<path d="M14405 10261 c-10 -18 7 -87 34 -137 66 -122 192 -157 390 -107 76
19 -98 -101 -213 -147 -75 -30 -93 -41 -101 -64 -8 -24 -6 -31 18 -52 l28 -24
-37 -34 c-51 -48 -57 -100 -17 -143 38 -41 98 -58 201 -58 45 1 82 -2 82 -6 0
-3 -21 -14 -47 -24 -48 -18 -155 -73 -226 -115 -45 -27 -146 -143 -188 -217
-37 -65 -36 -103 3 -114 21 -5 39 2 93 38 73 49 173 89 188 74 14 -14 -9 -41
-101 -116 -171 -139 -199 -178 -154 -218 33 -30 84 -31 147 -2 32 14 59 24 62
21 7 -7 -112 -94 -164 -120 -26 -13 -73 -32 -103 -42 -30 -10 -70 -29 -89 -43
-68 -51 -102 -141 -66 -171 15 -12 28 -13 95 -7 40 3 36 -27 -9 -56 -61 -40
-75 -67 -61 -116 7 -28 25 -53 62 -85 59 -51 94 -64 116 -42 21 21 9 54 -43
110 -25 27 -45 54 -45 60 1 6 14 27 30 46 34 39 36 54 14 99 -16 33 -57 56
-81 47 -38 -15 16 62 64 91 21 13 44 23 50 23 37 0 188 86 243 138 73 68 111
135 89 157 -12 11 -20 11 -49 0 -19 -7 -66 -24 -105 -39 -76 -28 -119 -34
-113 -13 3 6 54 52 114 100 107 87 144 131 144 172 0 46 -44 57 -119 30 -23
-8 -43 -15 -46 -15 -5 -1 -17 -4 -63 -19 -31 -10 -32 -9 -20 12 56 105 157
199 287 264 52 26 100 52 106 57 5 4 30 18 55 30 78 37 62 50 -80 61 -98 9
-136 16 -175 35 -54 27 -69 55 -39 77 10 7 14 13 9 13 -4 0 13 16 39 36 54 41
56 62 7 79 l-34 11 62 33 c129 67 169 93 239 156 19 17 40 34 48 38 8 5 12 12
9 17 -3 5 12 21 35 36 22 15 40 33 40 40 0 19 -42 18 -87 -1 -47 -20 -201 -45
-274 -45 -97 0 -163 34 -205 106 -13 22 -24 53 -24 67 0 27 -13 36 -25 18z"/>
<path d="M12746 10097 c-45 -23 -169 -38 -205 -25 -34 12 -37 3 -5 -19 30 -20
137 -25 208 -10 l38 8 -22 -38 c-13 -21 -40 -58 -60 -83 -20 -25 -45 -57 -55
-73 -17 -26 -17 -28 0 -47 10 -11 30 -20 45 -20 84 0 176 -66 164 -117 -5 -19
-3 -24 7 -21 23 7 23 58 0 89 -12 16 -21 31 -21 35 0 19 -39 46 -87 60 -36 10
-51 19 -46 27 4 7 26 37 49 67 44 58 80 149 70 175 -7 20 -32 17 -80 -8z"/>
<path d="M16801 10007 c-24 -70 -8 -250 25 -277 7 -7 14 -17 14 -23 0 -15 51
-67 67 -67 7 0 17 9 23 20 8 16 8 20 -4 20 -19 0 -52 46 -73 102 -9 24 -21 93
-27 153 -12 108 -12 109 -25 72z"/>
<path d="M16512 9768 c-56 -148 -105 -236 -179 -325 -47 -56 -126 -119 -158
-125 -25 -4 -27 -31 -3 -36 54 -10 225 132 282 233 36 65 96 249 96 294 0 28
-20 6 -38 -41z"/>
<path d="M15869 9778 c-26 -22 -99 -115 -99 -127 0 -21 22 -11 56 27 39 42 67
88 62 103 -2 6 -10 4 -19 -3z"/>
<path d="M12748 9652 c-20 -4 -25 -22 -7 -22 36 0 189 -106 189 -131 0 -5 -26
-6 -59 -3 -54 6 -59 5 -65 -14 -9 -26 15 -64 52 -83 16 -8 62 -13 114 -14 48
0 90 -4 94 -7 3 -4 -32 -25 -79 -48 -123 -60 -146 -95 -80 -122 48 -19 207
-54 231 -50 28 4 40 29 21 46 -15 14 -106 40 -176 51 -24 4 -43 10 -43 13 1 4
28 21 62 37 36 18 64 39 69 52 4 12 24 29 44 37 49 21 44 36 -12 36 -27 1 -77
7 -113 14 -57 11 -62 14 -38 20 24 7 27 12 22 35 -4 14 -13 31 -20 37 -8 6
-14 16 -14 21 0 13 -69 68 -95 75 -11 4 -33 10 -50 15 -16 5 -38 7 -47 5z
m149 -188 c-3 -3 -12 -4 -19 -1 -8 3 -5 6 6 6 11 1 17 -2 13 -5z"/>
<path d="M15838 9560 c-38 -40 -153 -100 -192 -100 -12 0 -32 -7 -44 -16 -19
-13 -20 -17 -8 -30 8 -8 23 -14 34 -14 26 0 230 47 257 59 11 5 34 14 50 20
69 23 148 60 164 76 20 22 24 23 -152 -34 -70 -22 -133 -41 -140 -41 -6 0 3
13 20 28 31 29 70 92 56 92 -5 -1 -25 -18 -45 -40z"/>
<path d="M16234 9512 c-6 -4 -24 -29 -39 -56 -16 -27 -48 -68 -72 -90 -47 -44
-52 -56 -25 -56 36 0 106 83 135 159 18 47 18 54 1 43z"/>
<path d="M12933 8593 c-19 -7 -16 -89 4 -148 12 -32 37 -70 70 -104 29 -30 52
-55 50 -56 -1 -1 -19 -12 -40 -24 -70 -42 -77 -95 -22 -167 45 -58 86 -37 50
26 -32 57 -7 104 74 135 55 21 68 48 29 61 -13 4 -25 9 -28 13 -3 3 -24 19
-47 35 -62 41 -90 84 -104 157 -14 70 -18 79 -36 72z"/>
<path d="M12848 8072 c-9 -16 -24 -61 -34 -102 -32 -141 8 -269 98 -316 35
-18 68 -10 68 17 0 13 -7 19 -24 19 -30 0 -66 43 -66 77 0 13 -8 38 -17 56
-21 41 -22 168 -1 217 25 57 5 82 -24 32z"/>
<path d="M12717 7793 c-15 -15 -6 -82 16 -114 37 -57 197 -118 197 -75 0 9 -8
16 -19 16 -11 0 -40 9 -64 19 -51 22 -107 93 -107 135 0 25 -10 33 -23 19z"/>
<path d="M12635 7711 c-62 -37 -105 -105 -144 -223 -24 -72 -37 -84 -47 -44
-3 13 -17 34 -30 47 -21 20 -27 21 -49 9 -35 -19 -84 -69 -102 -104 -18 -35
-121 -196 -136 -211 -6 -6 -7 23 -4 82 5 83 4 93 -13 98 -28 9 -124 -32 -172
-75 -32 -28 -48 -36 -59 -29 -24 15 -82 10 -115 -10 -34 -21 -92 -105 -96
-140 -5 -40 18 -34 63 15 81 88 88 94 114 94 24 0 26 -3 23 -37 -5 -60 24 -56
91 14 31 33 72 71 93 86 45 33 48 27 48 -89 0 -69 3 -86 16 -91 28 -10 46 10
71 78 15 40 36 75 58 94 18 17 59 65 90 108 32 42 62 77 67 77 14 0 58 -102
58 -136 0 -34 29 -68 52 -59 21 8 35 57 49 170 16 131 78 273 113 259 19 -7
32 16 15 27 -19 12 -20 12 -54 -10z"/>
</g>
</svg>
